<?xml version="1.0" standalone="no"?>
<!DOCTYPE svg PUBLIC "-//W3C//DTD SVG 20010904//EN"
 "http://www.w3.org/TR/2001/REC-SVG-20010904/DTD/svg10.dtd">
<svg version="1.0" xmlns="http://www.w3.org/2000/svg"
 width="451.000000pt" height="195.000000pt" viewBox="0 0 451.000000 195.000000"
 preserveAspectRatio="xMidYMid meet">
<metadata>
Created by potrace 1.10, written by Peter Selinger 2001-2011
</metadata>
<g transform="translate(0.000000,195.000000) scale(0.100000,-0.100000)"
fill="#ff0000" stroke="none">
<path d="M1292 1088 c2 -414 6 -633 13 -633 7 0 11 219 13 633 2 559 0 632
-13 632 -13 0 -15 -73 -13 -632z"/>
<path d="M2109 1713 c-81 -4 -87 -5 -98 -29 -6 -14 -11 -28 -11 -32 0 -4 35
-6 77 -3 60 3 84 8 105 25 25 19 38 49 21 44 -5 -1 -47 -4 -94 -5z"/>
<path d="M1467 1448 c0 -101 4 -182 7 -180 3 1 43 2 89 2 l83 0 -3 178 -4 177
-87 3 -87 3 2 -183z m131 130 c14 -14 17 -235 3 -256 -5 -8 -23 -12 -47 -10
l-39 3 -3 129 c-2 97 1 131 10 138 19 12 62 10 76 -4z"/>
<path d="M1669 1626 c-2 -2 -3 -41 -1 -85 l4 -81 78 0 c86 0 90 3 90 68 -1 62
-48 102 -121 102 -25 0 -48 -2 -50 -4z m114 -68 c9 -11 17 -26 17 -34 0 -19
-36 -36 -68 -32 -24 3 -27 8 -30 42 -5 59 39 72 81 24z"/>
<path d="M1994 1615 c24 -52 69 -168 97 -247 l34 -98 173 0 c94 0 175 1 180 3
4 1 7 82 7 179 l0 178 -90 0 -90 0 3 -175 c2 -110 0 -175 -7 -175 -10 0 -21
27 -107 275 l-24 70 -90 0 c-57 0 -89 -4 -86 -10z m145 -43 c17 -31 91 -234
91 -248 0 -10 -13 -14 -40 -14 -36 0 -42 4 -55 33 -31 69 -85 215 -85 231 0
24 76 23 89 -2z m295 12 c13 -5 16 -26 16 -128 0 -66 -4 -127 -9 -134 -5 -8
-23 -12 -47 -10 l-39 3 -3 124 c-2 82 1 128 9 137 12 15 46 18 73 8z"/>
<path d="M2509 1623 c-2 -34 3 -258 6 -263 2 -4 25 -4 50 0 161 24 145 270
-17 270 -21 0 -38 -3 -39 -7z m106 -69 c36 -38 34 -87 -5 -126 -48 -48 -64
-36 -68 51 -2 41 -1 80 2 88 9 22 45 15 71 -13z"/>
<path d="M2702 1444 c-1 -165 0 -185 14 -180 9 3 48 6 87 6 l72 0 0 180 0 180
-86 0 -86 0 -1 -186z m127 132 c8 -9 11 -55 9 -137 l-3 -124 -45 0 -45 0 -7
90 c-8 99 -2 166 16 177 18 13 63 9 75 -6z"/>
<path d="M2900 1450 l0 -180 85 0 85 0 0 180 0 180 -85 0 -85 0 0 -180z m128
128 c13 -13 18 -222 6 -252 -4 -11 -19 -16 -50 -16 l-44 0 0 134 c0 98 3 136
13 139 23 10 63 7 75 -5z"/>
<path d="M3095 1449 l0 -181 52 4 c59 5 88 25 109 75 19 45 18 167 -2 209 -21
43 -71 74 -120 74 l-39 0 0 -181z m109 100 c23 -26 26 -40 26 -100 0 -39 -5
-79 -10 -90 -13 -22 -67 -52 -80 -44 -11 7 -14 248 -3 258 15 15 43 5 67 -24z"/>
<path d="M3348 1605 c-48 -33 -62 -76 -56 -182 4 -78 7 -86 36 -115 25 -25 41
-32 84 -36 l53 -4 0 181 0 181 -40 0 c-26 0 -53 -9 -77 -25z m76 -41 c11 -29
7 -229 -5 -241 -19 -19 -68 13 -85 52 -26 62 -12 145 30 188 22 21 52 22 60 1z"/>
<path d="M3490 1628 c0 -2 -1 -83 -3 -182 l-2 -178 54 4 c47 4 59 10 88 41 32
36 33 39 33 127 0 105 -12 137 -63 169 -27 17 -106 30 -107 19z m86 -56 c31
-21 44 -59 44 -125 0 -38 -5 -77 -10 -88 -13 -22 -67 -52 -80 -44 -11 7 -14
248 -3 258 8 9 35 9 49 -1z"/>
<path d="M1920 1447 c-29 -83 -57 -157 -62 -164 -7 -9 20 -13 112 -15 121 -3
141 1 121 25 -13 16 -88 222 -97 265 -4 18 -10 35 -14 37 -4 3 -31 -64 -60
-148z m95 -47 c15 -38 24 -74 20 -80 -3 -5 -31 -10 -62 -10 -54 0 -55 0 -49
25 13 51 48 135 56 135 4 0 20 -31 35 -70z"/>
<path d="M600 1555 c0 -35 0 -35 -45 -35 l-46 0 7 -100 c7 -99 7 -100 -15
-100 -19 0 -22 -5 -19 -27 l3 -28 -95 0 c-78 0 -95 -3 -95 -15 0 -12 17 -15
92 -16 51 0 95 -3 97 -5 2 -2 6 -61 9 -131 l7 -128 -46 0 c-32 0 -44 -4 -41
-12 2 -8 22 -13 48 -13 38 0 44 -3 47 -22 3 -17 -5 -27 -31 -39 -91 -44 -88
-168 5 -210 32 -14 44 -15 78 -5 36 10 70 44 81 80 4 10 34 13 134 13 l130 0
17 -34 c11 -23 30 -40 58 -53 38 -17 45 -18 83 -4 34 11 46 23 65 61 l24 47
-21 46 c-15 33 -29 50 -51 58 -29 11 -30 14 -30 69 0 31 -5 60 -11 63 -16 10
-18 4 -20 -57 -2 -55 -3 -56 -44 -76 -27 -13 -46 -31 -55 -51 l-12 -31 -134 0
c-91 0 -134 4 -134 11 0 24 -43 69 -73 77 -25 6 -32 14 -32 32 0 23 3 24 48
21 37 -2 47 1 47 13 0 12 -11 16 -48 16 l-49 0 -6 98 c-4 53 -7 114 -7 135 0
35 2 37 25 31 19 -5 25 -2 25 9 0 10 -11 17 -27 19 -44 5 -41 28 4 28 33 -1
41 -5 61 -38 67 -108 222 -123 312 -30 22 23 40 48 40 55 0 9 14 13 41 13 39
0 40 -1 35 -27 -2 -16 -8 -72 -11 -125 -6 -86 -5 -98 9 -98 22 0 24 6 31 153
6 125 6 127 -15 127 -21 0 -21 2 -14 105 l7 105 -62 0 -61 0 0 30 c0 30 0 30
-60 30 l-60 0 0 -34 c0 -33 -1 -34 -40 -33 -38 2 -40 4 -40 35 l0 32 -60 0
-60 0 0 -35z m88 -167 c1 -93 -1 -168 -4 -168 -4 0 -16 7 -26 17 -14 13 -18
31 -18 90 0 66 -2 74 -17 71 -14 -3 -17 -12 -15 -44 3 -40 3 -41 -27 -36 -31
4 -31 5 -31 66 0 33 -3 71 -6 84 -6 19 -3 22 24 22 27 0 31 -4 34 -32 2 -21 8
-33 18 -33 12 0 14 13 12 68 l-4 69 29 -4 28 -3 3 -167z m200 7 c3 -153 2
-161 -19 -177 -12 -10 -28 -18 -36 -18 -9 0 -12 6 -9 18 3 9 7 90 8 180 l3
163 25 -3 25 -3 3 -160z m118 102 c1 -1 -1 -41 -4 -89 -4 -84 -6 -88 -27 -88
-13 0 -25 -6 -28 -12 -12 -36 -15 9 -5 100 l11 103 26 -6 c14 -4 26 -7 27 -8z
m-200 -10 c2 -2 -9 -93 -27 -214 -9 -66 -14 -83 -28 -83 -38 1 -40 10 -24 150
18 168 16 164 51 155 15 -4 28 -7 28 -8z m-225 -645 c25 -22 32 -36 31 -63 -1
-41 -48 -89 -88 -89 -37 0 -84 50 -84 90 0 40 47 90 84 90 14 0 40 -13 57 -28z
m500 -1 c39 -40 39 -82 0 -122 -18 -17 -40 -29 -56 -29 -40 0 -85 50 -85 93 0
27 7 41 31 61 40 34 74 33 110 -3z"/>
<path d="M502 829 c-41 -16 -38 -90 6 -101 29 -8 61 9 68 36 12 48 -27 82 -74
65z m48 -49 c0 -10 -6 -20 -12 -23 -21 -7 -38 4 -38 23 0 10 6 20 13 23 20 7
37 -4 37 -23z"/>
<path d="M1009 833 c-9 -2 -22 -15 -29 -28 -11 -21 -11 -29 0 -49 23 -43 84
-38 96 8 11 44 -23 78 -67 69z m41 -53 c0 -10 -6 -20 -12 -23 -21 -7 -38 4
-38 23 0 10 6 20 13 23 20 7 37 -4 37 -23z"/>
<path d="M1672 1388 c5 -44 11 -57 42 -85 30 -27 44 -33 82 -33 l46 0 -6 38
c-3 20 -8 58 -12 85 l-6 47 -75 0 -76 0 5 -52z m112 -10 c16 -60 -8 -77 -51
-36 -35 33 -30 58 11 58 26 0 35 -5 40 -22z"/>
<path d="M240 1250 c0 -11 7 -20 15 -20 8 0 15 9 15 20 0 11 -7 20 -15 20 -8
0 -15 -9 -15 -20z"/>
<path d="M1473 1203 c8 -16 29 -70 47 -120 31 -89 50 -116 50 -74 0 26 59 189
71 197 27 16 -1 24 -86 24 l-96 0 14 -27z m105 -21 c9 -6 10 -16 1 -40 -12
-35 -25 -33 -40 6 -7 18 -6 28 3 34 16 10 20 10 36 0z"/>
<path d="M1665 1218 c-36 -117 -55 -169 -91 -252 -24 -54 -44 -99 -44 -101 0
-1 43 0 97 1 l96 3 64 172 c34 95 63 176 63 181 0 14 -180 10 -185 -4z m108
-34 c18 -7 15 -17 -39 -163 -40 -110 -58 -128 -110 -115 -22 6 -24 10 -18 37
14 67 75 223 91 235 18 13 52 16 76 6z"/>
<path d="M590 1177 c0 -8 -10 -19 -22 -25 l-23 -11 23 0 c15 -1 22 -7 22 -21
0 -12 -10 -24 -22 -30 -22 -8 -22 -9 5 -9 26 -1 27 1 27 54 0 30 -2 55 -5 55
-3 0 -5 -6 -5 -13z"/>
<path d="M330 1135 c0 -12 13 -15 60 -15 47 0 60 3 60 15 0 12 -13 15 -60 15
-47 0 -60 -3 -60 -15z"/>
<path d="M730 1092 c-49 -26 -75 -81 -61 -125 16 -47 52 -78 98 -84 34 -4 45
-1 76 27 60 52 59 127 -3 171 -39 28 -71 32 -110 11z m89 -32 c10 -5 24 -23
31 -39 24 -58 -37 -124 -98 -103 -32 10 -66 64 -58 90 17 52 78 78 125 52z"/>
<path d="M356 971 c-9 -14 5 -42 18 -38 15 5 14 39 -1 44 -6 2 -14 0 -17 -6z"/>
<path d="M1614 819 c-50 -14 -94 -71 -94 -122 l0 -42 168 1 167 1 -1 46 c0 53
-27 90 -81 113 -36 16 -112 17 -159 3z m172 -64 c14 -14 24 -33 22 -43 -3 -15
-18 -17 -122 -17 -134 0 -146 7 -98 55 28 28 36 30 102 30 62 0 74 -3 96 -25z"/>
<path d="M1940 827 c0 -2 11 -25 23 -53 19 -39 96 -246 113 -301 2 -9 29 -13
90 -13 78 0 85 2 79 18 -8 21 -115 322 -120 340 -3 8 -31 12 -95 12 -49 0 -90
-1 -90 -3z m190 -154 c23 -59 44 -120 47 -136 6 -28 5 -28 -38 -25 l-44 3 -42
110 c-23 61 -42 120 -43 133 0 19 5 22 39 22 l40 0 41 -107z"/>
<path d="M2262 648 l3 -183 85 -3 85 -3 0 186 0 185 -88 0 -88 0 3 -182z m140
50 c2 -46 2 -107 0 -136 l-3 -53 -47 3 -47 3 -3 119 c-1 66 0 126 2 133 3 8
22 13 50 13 l45 0 3 -82z"/>
<path d="M2466 744 l2 -86 70 0 c39 0 75 3 81 7 14 8 14 77 0 108 -15 34 -60
57 -111 57 l-44 0 2 -86z m94 26 c11 -6 24 -20 30 -31 16 -30 -4 -49 -51 -49
l-39 0 0 45 c0 39 3 45 21 45 11 0 29 -5 39 -10z"/>
<path d="M2655 645 l0 -186 88 3 c48 2 87 6 87 11 0 4 0 86 0 182 l0 175 -87
0 -88 0 0 -185z m139 119 c8 -21 8 -183 0 -223 -6 -29 -9 -31 -49 -31 -30 0
-45 5 -49 16 -3 9 -6 62 -6 119 0 57 3 110 6 119 9 22 89 22 98 0z"/>
<path d="M2855 746 l0 -85 73 -3 c78 -3 85 0 96 43 16 67 -44 129 -126 129
l-44 0 1 -84z m118 2 c27 -37 9 -60 -42 -56 -35 3 -36 5 -39 46 -3 43 -3 43
29 40 21 -2 39 -12 52 -30z"/>
<path d="M3125 811 c-61 -38 -70 -55 -73 -156 -5 -135 22 -178 121 -191 l47
-7 0 187 0 186 -32 0 c-18 0 -46 -8 -63 -19z m59 -47 c3 -9 6 -62 6 -119 0
-115 -4 -135 -30 -135 -51 0 -90 93 -75 181 10 59 83 114 99 73z"/>
<path d="M3248 648 l2 -183 39 1 c85 2 120 49 127 170 5 82 4 92 -18 124 -27
40 -79 70 -123 70 l-30 0 3 -182z m83 122 c32 -18 49 -64 49 -135 0 -61 -3
-69 -30 -97 -16 -16 -38 -28 -47 -26 -16 3 -18 18 -21 123 -3 150 0 161 49
135z"/>
<path d="M3560 808 c-47 -32 -70 -67 -73 -111 l-2 -37 174 -3 173 -2 -5 44
c-10 85 -70 131 -173 131 -47 0 -69 -5 -94 -22z m194 -49 c15 -12 26 -30 26
-45 l0 -25 -122 3 c-136 3 -148 10 -100 58 28 28 36 30 100 30 55 0 75 -4 96
-21z"/>
<path d="M3925 812 c-62 -39 -70 -56 -73 -157 -5 -115 9 -148 74 -177 25 -10
56 -18 70 -16 l25 3 0 180 0 180 -33 3 c-19 1 -46 -5 -63 -16z m59 -48 c10
-25 7 -227 -3 -243 -12 -19 -54 -2 -74 31 -23 37 -30 133 -12 168 26 50 77 76
89 44z"/>
<path d="M4047 648 c2 -179 3 -183 24 -186 40 -7 107 27 131 66 32 52 33 186
2 229 -32 43 -82 73 -123 73 l-36 0 2 -182z m100 108 c25 -22 28 -31 31 -103
4 -74 2 -81 -23 -111 -16 -20 -36 -32 -51 -32 l-24 0 0 128 c0 71 3 132 7 135
12 13 32 7 60 -17z"/>
<path d="M1927 790 c-4 -8 -27 -73 -52 -145 -25 -71 -52 -139 -60 -151 -8 -12
-11 -24 -8 -28 4 -3 60 -6 125 -6 90 0 118 3 118 13 0 7 -4 17 -9 22 -10 12
-79 202 -96 265 -8 28 -15 39 -18 30z m43 -194 c29 -86 29 -86 -41 -86 -45 0
-60 3 -57 13 3 6 13 37 23 67 20 62 34 85 46 73 5 -5 18 -35 29 -67z"/>
<path d="M1465 599 c4 -24 14 -57 22 -72 30 -59 156 -86 241 -52 45 18 82 75
82 124 l0 31 -129 0 c-70 0 -150 3 -176 7 l-47 6 7 -44z m290 -28 c0 -42 -43
-64 -122 -62 -54 1 -72 6 -90 23 -23 21 -30 48 -16 62 4 3 57 5 117 4 110 -3
111 -3 111 -27z"/>
<path d="M2925 630 l-70 -5 3 -40 c2 -22 11 -51 21 -65 23 -33 77 -60 120 -60
32 0 33 1 27 32 -3 18 -9 56 -13 85 -3 30 -9 55 -12 56 -3 1 -37 0 -76 -3z
m48 -69 c11 -45 -3 -60 -38 -37 -48 31 -46 80 2 74 21 -2 29 -10 36 -37z"/>
<path d="M3440 601 c0 -87 46 -131 147 -139 114 -9 193 45 193 131 l0 37 -132
0 c-73 0 -150 3 -170 6 l-38 7 0 -42z m288 -27 c6 -40 -41 -64 -123 -64 -69 0
-75 2 -99 31 -46 54 -39 58 109 56 104 -2 110 -3 113 -23z"/>
<path d="M2465 545 l0 -85 38 0 c49 0 102 23 117 49 6 12 10 43 8 69 l-3 47
-80 3 -80 3 0 -86z m119 39 c9 -8 13 -21 10 -27 -18 -32 -40 -47 -66 -47 -26
0 -28 3 -28 39 0 22 5 42 13 44 25 11 56 7 71 -9z"/>
<path d="M619 306 c-2 -2 -3 -45 -1 -94 l3 -90 37 -5 c56 -10 86 10 90 59 4
51 -15 69 -70 68 -38 -1 -39 0 -36 29 3 27 -10 45 -23 33z m105 -108 c14 -23
-3 -52 -33 -56 -42 -6 -67 38 -39 66 17 17 58 11 72 -10z"/>
<path d="M1686 274 c7 -36 6 -37 -19 -30 -37 9 -75 -9 -83 -39 -15 -61 23 -99
90 -88 l36 6 2 78 c0 44 1 85 2 91 1 7 -7 14 -17 16 -16 3 -17 -1 -11 -34z
m-2 -76 c14 -23 -3 -52 -33 -56 -42 -6 -67 38 -39 66 17 17 58 11 72 -10z"/>
<path d="M2188 303 c-8 -19 4 -194 13 -191 14 5 15 191 1 196 -5 1 -12 -1 -14
-5z"/>
<path d="M3032 215 c4 -127 22 -129 26 -2 2 83 0 97 -13 97 -13 0 -15 -14 -13
-95z"/>
<path d="M334 292 c-6 -4 -16 -17 -23 -30 -10 -19 -8 -26 14 -48 17 -17 32
-23 44 -19 23 7 52 -20 45 -40 -4 -9 -24 -15 -55 -17 -27 -2 -49 -7 -49 -13 0
-17 80 -18 106 0 48 31 18 95 -45 95 -36 0 -50 22 -30 46 7 8 24 14 38 14 42
-3 53 -1 46 10 -7 12 -75 13 -91 2z"/>
<path d="M1265 287 c-11 -9 -14 -16 -7 -21 13 -8 63 14 56 25 -8 13 -28 11
-49 -4z"/>
<path d="M1527 294 c-9 -10 2 -24 19 -24 8 0 14 7 14 15 0 15 -21 21 -33 9z"/>
<path d="M3172 288 c5 -15 28 -18 29 -3 0 6 -7 12 -17 13 -10 3 -15 -1 -12
-10z"/>
<path d="M3520 216 c0 -74 3 -87 19 -96 23 -12 51 -3 51 16 0 8 -9 13 -22 11
-19 -2 -22 3 -23 36 -1 29 2 37 16 37 28 0 33 19 7 29 -13 4 -23 16 -23 26 0
10 -6 20 -12 22 -10 4 -13 -17 -13 -81z"/>
<path d="M3929 296 c-2 -2 -3 -41 -1 -85 3 -67 7 -83 22 -91 22 -12 50 -3 50
16 0 8 -9 13 -22 11 -20 -2 -23 3 -26 36 -3 32 0 37 17 37 12 0 21 7 21 15 0
8 -9 15 -20 15 -15 0 -20 7 -20 25 0 22 -10 32 -21 21z"/>
<path d="M487 229 c-58 -45 -12 -125 66 -113 36 6 37 8 37 48 0 74 -52 106
-103 65z m71 -21 c30 -30 0 -75 -42 -64 -29 7 -40 31 -26 57 12 21 50 25 68 7z"/>
<path d="M795 225 c-32 -31 -32 -59 1 -91 19 -20 31 -24 52 -20 32 8 62 40 62
68 0 25 -44 68 -70 68 -11 0 -32 -11 -45 -25z m73 -17 c30 -30 0 -75 -43 -64
-19 5 -25 13 -25 35 0 38 41 56 68 29z"/>
<path d="M958 243 c-27 -4 -28 -6 -28 -69 0 -48 3 -65 13 -62 6 3 13 25 15 50
3 41 6 48 33 57 28 10 33 33 6 30 -7 -1 -24 -4 -39 -6z"/>
<path d="M1130 177 c0 -51 3 -68 13 -64 6 2 11 15 10 28 -4 44 7 70 34 80 33
12 22 24 -23 24 l-34 0 0 -68z"/>
<path d="M1260 240 c-36 -9 -57 -51 -42 -84 14 -32 45 -45 95 -38 36 4 37 5
37 47 0 58 -37 89 -90 75z m46 -28 c19 -13 23 -41 8 -57 -18 -18 -46 -19 -62
-3 -34 34 13 88 54 60z"/>
<path d="M1405 243 l-30 -4 -1 -94 c-2 -75 1 -95 12 -95 10 0 14 12 14 40 0
37 2 40 19 30 11 -5 25 -10 31 -10 19 0 60 48 60 70 0 24 -43 71 -62 68 -7 0
-26 -3 -43 -5z m59 -29 c10 -4 16 -18 16 -35 0 -22 -6 -30 -25 -35 -43 -11
-73 34 -43 64 13 13 28 15 52 6z"/>
<path d="M1535 238 c-10 -24 -1 -123 10 -121 14 4 19 113 6 126 -7 7 -12 5
-16 -5z"/>
<path d="M1755 225 c-32 -31 -32 -59 1 -91 19 -20 31 -24 52 -20 32 8 62 40
62 68 0 25 -44 68 -70 68 -11 0 -32 -11 -45 -25z m79 -27 c22 -35 -27 -74 -59
-48 -18 15 -20 56 -2 64 22 9 50 1 61 -16z"/>
<path d="M2034 241 c-2 -2 -4 -46 -4 -98 0 -76 3 -93 15 -93 10 0 15 10 15 34
0 33 1 34 36 33 63 -2 94 57 55 104 -15 19 -29 24 -66 24 -26 0 -49 -2 -51 -4z
m94 -33 c30 -30 0 -75 -43 -64 -19 5 -25 13 -25 35 0 38 41 56 68 29z"/>
<path d="M2255 225 c-29 -29 -32 -55 -7 -84 17 -21 33 -25 90 -23 31 2 32 4
32 42 0 46 -34 90 -70 90 -11 0 -32 -11 -45 -25z m73 -17 c7 -7 12 -22 12 -35
0 -27 -42 -42 -65 -23 -28 23 -11 70 25 70 9 0 21 -5 28 -12z"/>
<path d="M2423 240 c-25 -10 -38 -48 -29 -84 8 -31 53 -50 89 -37 41 16 33 32
-14 29 -48 -3 -72 19 -53 50 9 12 23 16 53 14 46 -3 55 13 15 28 -30 12 -32
12 -61 0z"/>
<path d="M2546 226 c-33 -32 -33 -60 -1 -91 27 -28 33 -29 69 -15 39 15 31 29
-15 27 -26 -1 -44 3 -46 11 -3 8 10 12 46 12 47 0 51 2 51 24 0 27 -14 42 -52
51 -21 5 -33 1 -52 -19z m74 -21 c11 -13 7 -15 -29 -15 -38 0 -50 8 -34 23 12
12 50 7 63 -8z"/>
<path d="M2705 243 c-30 -4 -30 -5 -30 -65 0 -76 22 -94 27 -21 3 41 7 50 31
61 15 7 25 17 22 23 -4 5 -9 8 -13 7 -4 0 -21 -3 -37 -5z"/>
<path d="M2896 229 c-31 -24 -35 -68 -8 -92 19 -18 37 -21 90 -19 31 2 32 4
32 42 0 30 -7 47 -25 65 -30 30 -54 31 -89 4z m72 -21 c7 -7 12 -22 12 -35 0
-27 -42 -42 -65 -23 -28 23 -11 70 25 70 9 0 21 -5 28 -12z"/>
<path d="M3175 238 c-10 -24 -1 -123 10 -121 14 4 19 113 6 126 -7 7 -12 5
-16 -5z"/>
<path d="M3230 178 c0 -39 4 -68 10 -68 6 0 10 19 10 43 0 48 13 67 47 67 27
0 44 -29 41 -69 -2 -16 2 -30 7 -31 6 0 11 19 13 43 4 57 -21 81 -84 82 l-44
0 0 -67z"/>
<path d="M3407 237 c-12 -8 -18 -22 -15 -38 2 -19 10 -25 37 -29 51 -7 52 -30
2 -30 -30 0 -41 -4 -41 -15 0 -22 62 -19 90 3 19 15 21 22 11 40 -7 13 -23 22
-43 24 -43 4 -48 26 -6 30 18 2 32 8 31 13 -4 16 -46 17 -66 2z"/>
<path d="M3637 229 c-58 -45 -12 -125 66 -113 36 6 37 8 37 48 0 74 -52 106
-103 65z m71 -21 c30 -30 0 -75 -42 -64 -29 7 -40 31 -26 57 12 21 50 25 68 7z"/>
<path d="M3775 241 c-9 -9 -5 -120 5 -126 6 -4 10 11 10 37 0 48 13 68 45 68
32 0 45 -20 45 -68 0 -30 4 -42 13 -39 6 2 12 9 11 15 -1 7 -2 27 -2 45 -3 52
-22 70 -76 72 -25 0 -49 -1 -51 -4z"/>
<path d="M4045 225 c-14 -13 -25 -33 -25 -45 0 -21 41 -70 59 -70 20 0 61 20
61 29 0 5 -19 9 -41 8 -25 -1 -44 3 -46 10 -3 8 13 13 49 15 47 3 53 5 50 23
-4 25 -38 55 -64 55 -10 0 -30 -11 -43 -25z m69 -11 c29 -11 16 -24 -24 -24
-38 0 -49 8 -33 23 8 9 36 9 57 1z"/>
<path d="M1890 125 c0 -8 -4 -15 -10 -15 -5 0 -10 -7 -10 -15 0 -18 21 -20 38
-3 17 17 15 48 -3 48 -8 0 -15 -7 -15 -15z"/>
</g>
</svg>
